<mxfile host="app.diagrams.net" modified="2020-12-14T10:11:13.385Z" agent="5.0 (Windows NT 10.0; Win64; x64) AppleWebKit/537.36 (KHTML, like Gecko) Chrome/87.0.4280.88 Safari/537.36" etag="yBGffo2Va902OBzxXyuX" version="13.3.9" type="github">
  <diagram id="yvwHO2g_TIc-FONe8otb" name="Page-1">
    <mxGraphModel dx="1422" dy="762" grid="1" gridSize="10" guides="1" tooltips="1" connect="1" arrows="1" fold="1" page="1" pageScale="1" pageWidth="827" pageHeight="1169" math="0" shadow="0">
      <root>
        <mxCell id="0" />
        <mxCell id="1" parent="0" />
        <mxCell id="BXoDsPr0wfIGz1yi1KD3-10" value="Dropship倉製作客戶標籤" style="text;html=1;align=center;verticalAlign=middle;resizable=0;points=[];autosize=1;" vertex="1" parent="1">
          <mxGeometry x="53" y="200" width="150" height="20" as="geometry" />
        </mxCell>
        <mxCell id="BXoDsPr0wfIGz1yi1KD3-12" value="無統一格式，由客戶定義OI後製作。" style="text;html=1;align=center;verticalAlign=middle;resizable=0;points=[];autosize=1;" vertex="1" parent="1">
          <mxGeometry x="40" y="275" width="210" height="20" as="geometry" />
        </mxCell>
        <mxCell id="BXoDsPr0wfIGz1yi1KD3-14" value="現況&lt;br&gt;" style="text;html=1;align=center;verticalAlign=middle;resizable=0;points=[];autosize=1;" vertex="1" parent="1">
          <mxGeometry x="30" y="160" width="40" height="20" as="geometry" />
        </mxCell>
        <mxCell id="BXoDsPr0wfIGz1yi1KD3-17" value="&lt;span style=&quot;color: rgb(0, 0, 0); font-family: helvetica; font-size: 12px; font-style: normal; font-weight: 400; letter-spacing: normal; text-align: center; text-indent: 0px; text-transform: none; word-spacing: 0px; background-color: rgb(248, 249, 250); display: inline; float: none;&quot;&gt;Subcon僅回傳照片&lt;/span&gt;" style="text;whiteSpace=wrap;html=1;" vertex="1" parent="1">
          <mxGeometry x="270" y="270" width="130" height="30" as="geometry" />
        </mxCell>
        <mxCell id="BXoDsPr0wfIGz1yi1KD3-18" value="預期" style="text;html=1;align=center;verticalAlign=middle;resizable=0;points=[];autosize=1;" vertex="1" parent="1">
          <mxGeometry x="30" y="360" width="40" height="20" as="geometry" />
        </mxCell>
        <mxCell id="BXoDsPr0wfIGz1yi1KD3-19" value="人員透過AutoIQC查閱照片與相關規定判斷" style="text;html=1;align=center;verticalAlign=middle;resizable=0;points=[];autosize=1;" vertex="1" parent="1">
          <mxGeometry x="390" y="275" width="240" height="20" as="geometry" />
        </mxCell>
        <mxCell id="BXoDsPr0wfIGz1yi1KD3-20" value="查驗OK後簽核入庫" style="text;html=1;align=center;verticalAlign=middle;resizable=0;points=[];autosize=1;" vertex="1" parent="1">
          <mxGeometry x="652" y="275" width="120" height="20" as="geometry" />
        </mxCell>
        <mxCell id="BXoDsPr0wfIGz1yi1KD3-21" value="Dropship 回傳VirtualStock Data" style="text;html=1;align=center;verticalAlign=middle;resizable=0;points=[];autosize=1;" vertex="1" parent="1">
          <mxGeometry x="212" y="200" width="180" height="20" as="geometry" />
        </mxCell>
        <mxCell id="BXoDsPr0wfIGz1yi1KD3-22" value="Z130人員透過UI 進行照片資料比對" style="text;html=1;align=center;verticalAlign=middle;resizable=0;points=[];autosize=1;" vertex="1" parent="1">
          <mxGeometry x="420" y="200" width="200" height="20" as="geometry" />
        </mxCell>
        <mxCell id="BXoDsPr0wfIGz1yi1KD3-23" value="Z130人員執行簽核,SAP系統入庫" style="text;html=1;align=center;verticalAlign=middle;resizable=0;points=[];autosize=1;" vertex="1" parent="1">
          <mxGeometry x="652" y="200" width="190" height="20" as="geometry" />
        </mxCell>
        <mxCell id="BXoDsPr0wfIGz1yi1KD3-24" value="Dropship倉製作客戶標籤" style="text;html=1;align=center;verticalAlign=middle;resizable=0;points=[];autosize=1;" vertex="1" parent="1">
          <mxGeometry x="66" y="390" width="150" height="20" as="geometry" />
        </mxCell>
        <mxCell id="BXoDsPr0wfIGz1yi1KD3-25" value="無統一格式，由客戶定義OI後製作。" style="text;html=1;align=center;verticalAlign=middle;resizable=0;points=[];autosize=1;" vertex="1" parent="1">
          <mxGeometry x="53" y="465" width="210" height="20" as="geometry" />
        </mxCell>
        <mxCell id="BXoDsPr0wfIGz1yi1KD3-26" value="" style="endArrow=classic;html=1;" edge="1" parent="1">
          <mxGeometry width="50" height="50" relative="1" as="geometry">
            <mxPoint x="107" y="440" as="sourcePoint" />
            <mxPoint x="233" y="440" as="targetPoint" />
          </mxGeometry>
        </mxCell>
        <mxCell id="BXoDsPr0wfIGz1yi1KD3-27" value="&lt;span style=&quot;color: rgb(0, 0, 0); font-family: helvetica; font-size: 12px; font-style: normal; font-weight: 400; letter-spacing: normal; text-align: center; text-indent: 0px; text-transform: none; word-spacing: 0px; background-color: rgb(248, 249, 250); display: inline; float: none;&quot;&gt;Subcon僅回傳照片&lt;/span&gt;" style="text;whiteSpace=wrap;html=1;" vertex="1" parent="1">
          <mxGeometry x="283" y="460" width="130" height="30" as="geometry" />
        </mxCell>
        <mxCell id="BXoDsPr0wfIGz1yi1KD3-28" value="人員透過系統設定客標比對項目與規則" style="text;html=1;align=center;verticalAlign=middle;resizable=0;points=[];autosize=1;" vertex="1" parent="1">
          <mxGeometry x="413" y="465" width="220" height="20" as="geometry" />
        </mxCell>
        <mxCell id="BXoDsPr0wfIGz1yi1KD3-29" value="查驗OK後簽核入庫" style="text;html=1;align=center;verticalAlign=middle;resizable=0;points=[];autosize=1;" vertex="1" parent="1">
          <mxGeometry x="665" y="465" width="120" height="20" as="geometry" />
        </mxCell>
        <mxCell id="BXoDsPr0wfIGz1yi1KD3-30" value="Dropship 回傳VirtualStock Data" style="text;html=1;align=center;verticalAlign=middle;resizable=0;points=[];autosize=1;" vertex="1" parent="1">
          <mxGeometry x="225" y="390" width="180" height="20" as="geometry" />
        </mxCell>
        <mxCell id="BXoDsPr0wfIGz1yi1KD3-31" value="AutoIQC觸發客標影像辨識後做資料比對" style="text;html=1;align=center;verticalAlign=middle;resizable=0;points=[];autosize=1;" vertex="1" parent="1">
          <mxGeometry x="418" y="390" width="230" height="20" as="geometry" />
        </mxCell>
        <mxCell id="BXoDsPr0wfIGz1yi1KD3-32" value="系統比對正確後做簽核,SAP系統入庫&lt;br&gt;不符合規則之標籤將被&lt;br&gt;分派由人員進行人工比對" style="text;html=1;align=center;verticalAlign=middle;resizable=0;points=[];autosize=1;" vertex="1" parent="1">
          <mxGeometry x="655" y="375" width="210" height="50" as="geometry" />
        </mxCell>
      </root>
    </mxGraphModel>
  </diagram>
</mxfile>
